<svg width="667" height="488" viewBox="0 0 667 488" fill="none" xmlns="http://www.w3.org/2000/svg">
<g clip-path="url(#clip0_381_166)">
<rect width="667" height="488" fill="#FEF6F4"/>
<path d="M0 487.662H666.667V-179.005H0V487.662Z" fill="#FEF6F4"/>
<path d="M666.667 102.862V487.262L666.64 487.662H399.88L0 441.168V314.275C156.547 384.969 264.08 337.889 393.52 221.129C524.307 103.182 620.2 96.1287 666.667 102.862Z" fill="#FEF6F4"/>
<path d="M666.667 121.355V487.662H0V394.982C186.067 468.862 293.827 410.982 417.427 270.395C527.133 145.609 617.4 122.449 666.667 121.355Z" fill="#FFE9F6"/>
<path d="M627.416 487.667H462.723C462.723 487.665 462.723 487.664 462.723 487.662H627.429C627.424 487.664 627.421 487.665 627.416 487.667ZM666.665 468.483V393.444L666.667 393.446V468.482L666.665 468.483Z" fill="#E1DFDE"/>
<path d="M298.393 295.553C296.945 292.082 298.623 291.291 298.623 291.291C294.644 286.665 299.163 285.501 299.163 285.501C299.163 285.501 298.5 284.097 300.936 283.018C301.579 282.734 302.407 282.607 303.373 282.607C306.153 282.607 310.089 283.659 314.12 285.089C308.864 288.725 303.629 292.211 298.393 295.553Z" fill="#F1D1E7"/>
<path d="M346.228 342.845C345.848 341.015 345.645 340.009 345.645 340.009C345.645 340.009 346.207 339.599 347.145 338.945L345.645 333.537C345.645 333.537 346.507 332.761 347.899 331.641C346.339 327.614 341.885 324.917 341.08 324.663L340.811 324.594C340.695 324.577 340.597 324.571 340.527 324.571C340.441 324.571 340.393 324.579 340.393 324.579C338.797 324.147 337.201 323.646 335.621 323.083C323.893 318.981 312.944 311.926 306.212 305.942C306.212 305.942 304.669 305.047 304.924 303.374C304.924 303.374 299.727 298.099 299.219 297.206C298.871 296.597 298.601 296.047 298.395 295.553C303.631 292.211 308.865 288.725 314.121 285.089C315.217 285.478 316.32 285.894 317.408 286.326C322.944 288.515 328.127 289.895 331.288 290.629C333.253 291.091 334.433 291.299 334.433 291.299C329.344 285.385 333.84 283.595 333.84 283.595C333.84 283.595 338.559 288.299 345.66 289.881C358.815 292.81 361.303 308.279 360.889 311.981C360.72 313.483 362.031 318.254 363.637 323.37C363.784 323.362 363.929 323.358 364.072 323.358C364.603 323.358 365.109 323.413 365.585 323.537L365.98 324.647C359.392 330.983 352.816 337.049 346.228 342.845ZM365.585 323.537C365.585 323.537 365.123 324.354 364.343 325.579L364.375 325.677C364.853 325.018 365.268 324.309 365.585 323.537Z" fill="#F1D1E7"/>
<path d="M464.081 165.315C465.058 160.718 466.848 156.583 469.276 153.334C468.924 151.782 468.51 150.139 468.02 148.389C466.778 143.959 466.1 139.469 465.948 135.011C463.134 135.702 460.777 136.373 458.972 136.929C459.314 124.869 461.305 118.262 461.55 117.475C458.112 125.177 456.957 133.171 456.564 137.702C455.361 138.107 454.734 138.354 454.734 138.354C456.842 80.3727 500.692 71.6674 523.653 71.1034C523.653 71.1021 524.418 67.2301 541.909 67.2301C548.622 67.2301 561.534 69.7274 573.929 77.3074C586.47 81.9474 599.316 89.9527 607.916 103.727C570.274 109.55 521.744 126.207 464.081 165.315Z" fill="#F1D1E7"/>
<path d="M475.243 211.899C472.235 207.099 470.167 202.733 469.609 199.713C469.205 197.535 468.939 195.561 468.777 193.734C466.547 190.249 464.85 185.97 463.942 181.123C462.921 175.669 463.038 170.229 464.082 165.315C521.745 126.207 570.275 109.55 607.917 103.727C612.207 110.599 615.442 118.909 617.053 128.95C578.955 139.417 530.538 162.833 475.243 211.899Z" fill="#F1D1E7"/>
<path d="M627.431 487.662H462.724C463.627 468.346 463.963 439.501 459.889 417.155C451.181 433.698 441.781 449.341 434.443 455.981C423.193 466.159 410.544 472.975 399.397 472.974C392.047 472.974 385.348 470.01 380.139 463.091C368.304 447.379 349.736 359.783 346.227 342.845C352.815 337.049 359.391 330.983 365.979 324.647L367.468 328.847C368.013 328.85 368.504 328.921 368.912 329.091C383.183 358.213 402.443 428.425 402.443 428.425C402.443 428.425 440.665 303.091 470.079 284.483C473.952 281.663 479.043 279.005 484.405 276.623C482.308 261.191 479.863 239.733 478.715 217.051C477.459 215.307 476.293 213.577 475.244 211.899C530.539 162.833 578.956 139.417 617.053 128.95C617.305 130.521 617.517 132.131 617.688 133.789C623.261 187.926 614.028 261.499 610.199 288.238C626.577 307.675 642.64 348.701 653.325 380.039L666.667 393.444V468.483C666.517 468.556 646.193 478.644 627.431 487.662ZM603.643 383.814C600.556 390.817 598.188 395.031 598.188 395.031C598.188 395.031 571.297 428.942 578.56 474.187L625.421 440.995C620.301 428.678 611.039 405.739 603.643 383.814Z" fill="#F1D1E7"/>
<path d="M358.984 327.186C358.984 327.186 376.944 314.046 382.254 316.268C382.254 316.268 377.231 337.602 370.619 336.046C364.006 334.491 358.984 327.186 358.984 327.186Z" fill="#1F2C52"/>
<path d="M358.984 320.712C358.984 320.712 372.066 308.935 378.924 310.712C378.924 310.712 371.867 323.232 366.006 324.064C360.146 324.896 358.984 320.712 358.984 320.712Z" fill="#FBC74B"/>
<path d="M382.256 326.071C375.832 342.649 361.787 321.601 361.787 321.601C361.787 316.065 355.401 312.148 354.421 311.84L354.152 311.771C353.897 311.732 353.736 311.755 353.736 311.755C352.14 311.324 350.544 310.823 348.963 310.26C337.235 306.157 326.285 299.101 319.553 293.119C319.553 293.119 318.012 292.224 318.265 290.551C318.265 290.551 313.069 285.276 312.56 284.381C309.776 279.501 311.967 278.468 311.967 278.468C307.988 273.841 312.505 272.677 312.505 272.677C312.505 272.677 311.843 271.273 314.28 270.193C317.271 268.876 324.265 270.935 330.749 273.501C336.287 275.692 341.468 277.072 344.629 277.804C346.596 278.267 347.775 278.475 347.775 278.475C342.687 272.561 347.181 270.772 347.181 270.772C347.181 270.772 351.9 275.476 359.003 277.056C372.157 279.987 374.645 295.456 374.231 299.157C373.819 302.835 382.256 326.071 382.256 326.071Z" fill="#F68A68"/>
<path d="M354.506 283.866C354.506 283.866 355.285 290.289 358.986 294.63C356.881 292.471 353.512 288.562 352.062 284.382C352.062 284.382 345.67 280.234 344.629 277.805C346.596 278.267 347.774 278.475 347.774 278.475C351.168 281.815 354.506 283.866 354.506 283.866Z" fill="#F2815D"/>
<path d="M318.264 290.551C318.65 288.623 321.219 289.008 323.019 290.551C324.818 292.092 330.345 295.882 332.529 296.364C334.714 296.848 333.158 281.984 335.1 278.856C335.1 278.856 332.786 278.856 328.032 276.671C323.276 274.487 317.282 270.739 312.504 272.678C312.504 272.678 314.666 271.659 319.421 273.972C324.176 276.286 332.658 280.142 332.658 280.142C332.658 280.142 333.814 282.334 332.144 284.258C330.473 286.182 315.946 274.995 311.965 278.468C311.965 278.468 315.565 278.856 317.878 280.27C320.192 281.683 329.83 286.695 331.373 286.952C332.914 287.21 332.144 291.707 330.601 292.35C330.601 292.35 323.918 289.327 321.092 287.754C318.264 286.182 318.264 290.551 318.264 290.551Z" fill="#F2815D"/>
<path d="M358.984 320.712C358.984 320.712 375.176 319.824 378.924 310.712L383.339 323.158L362.006 331.602L358.984 320.712Z" fill="#F5982E"/>
<path d="M483.419 271.659C454.006 290.268 415.784 415.601 415.784 415.601C415.784 415.601 396.523 345.389 382.254 316.268C382.254 316.268 371.334 329.157 358.984 327.185C358.984 327.185 380.367 432.857 393.479 450.268C406.591 467.679 429.118 460.045 447.784 443.157C466.451 426.268 498.468 351.112 498.468 351.112L483.419 271.659Z" fill="#110128"/>
<path d="M548.071 58.2486C548.071 58.2486 624.099 53.65 631.029 120.966C637.958 188.282 621.993 285.669 621.993 285.669L501.351 287.349C501.351 287.349 475.374 143.251 507.338 99.0406C539.301 54.8286 548.071 58.2486 548.071 58.2486Z" fill="#3F131C"/>
<path d="M572.551 146.316C572.551 146.316 569.939 164.123 567.779 195.735C567.438 200.69 567.109 205.975 566.803 211.59C565.717 231.374 564.923 255.162 564.923 282.294L539.097 305.276C539.097 305.276 529.174 293.999 528.418 244.287C528.198 231.338 528.625 215.763 530.005 197.102C530.334 192.538 530.725 187.778 531.189 182.834C533.946 153.028 572.551 146.316 572.551 146.316Z" fill="#E36546"/>
<path d="M567.779 195.735C567.438 200.69 567.109 205.975 566.803 211.59C558.797 224.478 545.517 240.919 528.418 244.287C528.198 231.338 528.625 215.763 530.005 197.102L567.779 195.735Z" fill="#E36546"/>
<path d="M515.657 155.632C518.552 171.093 512.308 186.463 501.712 189.961C491.116 193.459 480.178 183.761 477.282 168.3C474.388 152.839 480.632 137.469 491.228 133.971C501.824 130.472 512.761 140.171 515.657 155.632Z" fill="#110128"/>
<path d="M606.418 166.044C605.821 167.524 605.201 168.969 604.568 170.377C594.277 193.525 570.532 211.612 550.559 221.449C538.537 227.383 527.876 230.32 522.349 229.568C507.629 227.563 485.017 198.051 482.952 186.888C478.797 164.54 489.005 162.868 481.364 135.565C471.015 98.6279 498.723 57.5012 561.745 66.1199C629.531 75.3959 621.77 128.976 606.418 166.044Z" fill="#F68A68"/>
<path d="M606.419 166.044C605.821 167.524 605.201 168.969 604.568 170.377C594.277 193.525 570.532 211.612 550.559 221.449C591.233 197.429 586.864 156.243 586.864 156.243L606.419 166.044Z" fill="#F68A68"/>
<path d="M566.078 120.966C566.078 120.966 574.435 159.837 592.045 167.466C609.653 175.094 624.278 121.157 566.078 120.966Z" fill="#5E1020"/>
<path d="M555.518 145.202C554.718 140.039 551.358 136.165 547.332 136.165C542.709 136.165 538.961 141.271 538.961 147.57C538.961 153.87 542.709 158.977 547.332 158.977C551.954 158.977 555.701 153.87 555.701 147.57C560.704 147.322 562.558 144.934 562.558 144.934C557.086 146.741 555.518 145.202 555.518 145.202Z" fill="#3F131C"/>
<path d="M554.042 148.728C554.042 152.647 552.642 156.072 550.518 158.014C549.364 159.082 547.988 159.696 546.514 159.696C545.114 159.696 543.8 159.131 542.67 158.16C542.154 157.719 541.676 157.19 541.246 156.576C539.833 154.599 538.961 151.799 538.961 148.728C538.961 144.431 540.669 140.71 543.137 138.928C543.924 138.363 544.796 137.983 545.716 137.835C545.986 137.799 546.244 137.774 546.514 137.774C547.386 137.774 548.209 137.983 548.982 138.376C551.93 139.862 554.042 143.939 554.042 148.728Z" fill="#FEF6F4"/>
<path d="M540.72 183.928C540.72 183.928 540.218 186.818 538.333 190.279C537.938 191.031 537.449 191.819 536.9 192.607C533.056 198.051 525.606 203.638 511.484 201.083C510.469 200.904 509.418 200.678 508.332 200.415C508.332 200.415 507.532 191.52 498.566 184.991C498.781 185.062 500.894 185.85 504.738 186.495C511.578 187.652 523.9 188.38 540.72 183.928Z" fill="#8B1722"/>
<path d="M538.334 190.279C537.939 191.031 537.45 191.819 536.9 192.607C533.056 198.051 525.607 203.638 511.484 201.083C516.199 191.568 531.552 190.339 538.334 190.279Z" fill="#B51B42"/>
<path d="M540.72 183.928C540.72 183.928 539.968 188.226 536.9 192.607C524.83 196.332 507.58 192.822 507.58 192.822L504.738 186.495C511.578 187.652 523.9 188.38 540.72 183.928Z" fill="#FEF6F4"/>
<path d="M554.045 148.728C554.045 152.647 552.645 156.072 550.521 158.014C550.116 158.111 549.699 158.16 549.28 158.16C545.289 158.16 542.059 153.727 542.059 148.261C542.059 142.932 545.129 138.584 548.985 138.376C551.933 139.862 554.045 143.939 554.045 148.728Z" fill="#211C1D"/>
<path d="M546.861 142.878C546.861 144.697 545.786 146.17 544.462 146.17C543.137 146.17 542.062 144.697 542.062 142.878C542.062 141.061 543.137 139.586 544.462 139.586C545.786 139.586 546.861 141.061 546.861 142.878Z" fill="#FEF6F4"/>
<path d="M491.931 145.202C492.731 140.039 496.091 136.165 500.117 136.165C504.74 136.165 508.487 141.271 508.487 147.57C508.487 153.87 504.74 158.977 500.117 158.977C495.495 158.977 491.747 153.87 491.747 147.57C486.745 147.322 484.891 144.934 484.891 144.934C490.361 146.741 491.929 145.202 491.931 145.202Z" fill="#3F131C"/>
<path d="M507.339 148.728C507.339 152.647 505.939 156.072 503.814 158.014C502.66 159.082 501.296 159.696 499.823 159.696C498.411 159.696 497.096 159.131 495.979 158.16C495.451 157.719 494.972 157.19 494.542 156.576C493.142 154.599 492.27 151.799 492.27 148.728C492.27 144.431 493.978 140.71 496.446 138.928C497.231 138.363 498.103 137.983 499.024 137.835C499.283 137.799 499.552 137.774 499.823 137.774C500.683 137.774 501.518 137.983 502.279 138.376C505.227 139.862 507.339 143.939 507.339 148.728Z" fill="#FEF6F4"/>
<path d="M507.342 148.728C507.342 152.647 505.942 156.072 503.817 158.014C503.425 158.111 503.006 158.16 502.589 158.16C498.598 158.16 495.367 153.727 495.367 148.261C495.367 142.944 498.426 138.596 502.282 138.376C505.23 139.862 507.342 143.939 507.342 148.728Z" fill="#211C1D"/>
<path d="M500.166 142.878C500.166 144.697 499.093 146.17 497.767 146.17C496.442 146.17 495.367 144.697 495.367 142.878C495.367 141.061 496.442 139.586 497.767 139.586C499.093 139.586 500.166 141.061 500.166 142.878Z" fill="#FEF6F4"/>
<path d="M506.94 176.475C505.628 176.475 504.143 175.811 502.695 174.564C500.936 173.053 499.164 170.572 499.164 168.435C499.164 165.545 500.332 164.811 501.812 163.88C503.237 162.984 505.188 161.757 507.628 157.651C512.313 149.759 507.62 138.887 507.572 138.779C507.349 138.273 507.579 137.683 508.084 137.46C508.589 137.24 509.179 137.465 509.403 137.972C509.615 138.456 514.553 149.904 509.347 158.671C506.661 163.193 504.384 164.625 502.877 165.573C501.561 166.4 501.164 166.651 501.164 168.435C501.164 169.676 502.383 171.657 503.997 173.047C505.169 174.053 506.367 174.579 507.191 174.456C507.737 174.372 508.247 174.749 508.328 175.295C508.412 175.84 508.035 176.351 507.489 176.433C507.312 176.46 507.128 176.475 506.94 176.475Z" fill="#E36546"/>
<path d="M558.135 130.458C557.677 130.458 557.218 130.289 556.862 129.946C546.053 119.597 535.458 126.502 535.013 126.801C534.173 127.366 533.026 127.146 532.458 126.305C531.889 125.463 532.106 124.323 532.945 123.751C533.078 123.659 546.409 114.834 559.409 127.285C560.145 127.989 560.169 129.155 559.466 129.89C559.103 130.267 558.619 130.458 558.135 130.458Z" fill="#3F131C"/>
<path d="M484.888 129.435C484.482 129.435 484.076 129.301 483.736 129.028C482.942 128.391 482.816 127.232 483.453 126.439C489.713 118.648 500.546 121.077 505.398 123.451C506.312 123.897 506.692 125 506.245 125.915C505.798 126.828 504.694 127.204 503.784 126.761C503.316 126.536 492.3 121.315 486.325 128.745C485.961 129.199 485.426 129.435 484.888 129.435Z" fill="#3F131C"/>
<path d="M578.483 108.864C565.687 119.095 566.081 127.594 566.081 127.594C561.794 125.85 557.533 124.388 553.333 123.172C552.866 116.111 552.583 105.807 554.045 98.2177C554.045 98.2177 547.954 108.362 546.307 121.355C538.951 119.66 531.791 118.678 525.001 118.223C524.865 110.535 525.161 102.626 526.327 95.9698C526.094 96.6578 523.674 104.174 521.979 116.074C521.119 99.0284 524.374 86.5751 524.583 85.8018C519.29 96.9404 518.111 108.89 518.234 117.916C506.997 117.67 496.951 118.763 488.858 120.175C488.821 114.994 489.005 108.656 489.669 101.496C489.669 101.496 486.499 109.062 485.861 120.74C480.015 121.883 475.386 123.16 472.315 124.106C472.659 112.046 474.649 105.439 474.894 104.652C471.455 112.352 470.301 120.347 469.909 124.879C468.705 125.284 468.078 125.53 468.078 125.53C470.939 46.8098 550.754 58.9177 550.754 58.9177C580.227 67.1097 591.293 98.6351 578.483 108.864Z" fill="#5E1020"/>
<path d="M548.074 58.248C548.074 58.248 624.102 53.6493 631.032 120.965C637.961 188.281 621.996 285.668 621.996 285.668L605.721 146.169L566.078 120.965C568.369 91.3733 548.074 58.248 548.074 58.248Z" fill="#5E1020"/>
<path d="M588.087 159.18C597.169 147.074 618.043 139.836 625.312 152.01C630.692 161.02 628.036 172.55 622.389 179.572C614.368 189.539 591.287 192.175 584.823 176.1C582.499 170.324 584.232 164.319 588.087 159.18Z" fill="#F68A68"/>
<path d="M597.93 176.107C597.93 176.107 602.639 161.497 609.078 155.504C615.618 149.413 623.896 152.035 625.14 165.729C625.14 165.729 620.991 162.401 618.167 164.212C618.167 164.212 624.423 178.943 607.216 182.416C607.216 182.416 606.692 172.789 597.93 176.107Z" fill="#E36546"/>
<path d="M617.255 167.908C615.158 183.497 604.411 196.135 593.253 196.135C582.094 196.135 574.747 183.497 576.846 167.908C578.943 152.319 589.69 139.68 600.849 139.68C612.007 139.68 619.354 152.319 617.255 167.908Z" fill="#110128"/>
<path d="M601.765 151.111C601.765 151.111 613.932 57.4367 536.996 58.2807C536.996 58.2807 537.759 54.406 555.252 54.406C572.745 54.406 632.332 71.3233 615.173 151.111C615.173 151.111 609.835 146.379 601.765 151.111Z" fill="#D2D3D2"/>
<path d="M535.572 208.04C534.6 208.04 533.624 208.023 532.634 207.989C531.99 207.967 531.487 207.428 531.508 206.783C531.53 206.139 532.063 205.601 532.714 205.659C571.195 206.956 594.19 181.308 594.418 181.049C594.843 180.563 595.58 180.519 596.063 180.941C596.547 181.367 596.595 182.104 596.17 182.588C595.94 182.848 573.375 208.04 535.572 208.04Z" fill="#D2D3D2"/>
<path d="M533.926 209.346H528.994C527.293 209.346 525.914 207.967 525.914 206.266C525.914 204.564 527.293 203.186 528.994 203.186H533.926C535.627 203.186 537.006 204.564 537.006 206.266C537.006 207.967 535.627 209.346 533.926 209.346Z" fill="#110128"/>
<path d="M619.303 168.437C617.732 180.117 609.68 189.586 601.319 189.586C592.957 189.586 587.455 180.117 589.025 168.437C590.597 156.755 598.649 147.287 607.011 147.287C615.371 147.287 620.875 156.755 619.303 168.437Z" fill="#FEF6F4"/>
<path d="M475.319 487.667H599.904C573.694 429.922 611.532 382.208 611.532 382.208C611.532 382.208 614.923 376.179 618.886 366.534C627.78 344.842 639.515 304.884 621.895 274.167C619.03 269.164 612.164 265.188 604.178 262.096C603.08 261.667 601.958 261.262 600.811 260.867C584.48 255.232 565.235 252.988 565.235 252.988C534.852 265.439 528.656 252.988 528.656 252.988C528.656 252.988 497.736 261.238 483.422 271.659C476.151 276.96 468.332 297.708 464.32 321.06C460.452 343.707 460.166 368.789 467.484 384.596C479.415 410.353 476.816 466.462 475.319 487.667Z" fill="#FEF6F4"/>
<path d="M666.667 367.216C654.538 331.647 635.483 283.581 616.902 268.787C616.902 268.787 603.619 297.579 606.006 327.888C608.394 358.199 642.612 437.295 642.612 437.295L666.667 418.3V367.216Z" fill="#110128"/>
<path d="M576.488 251.019C576.488 251.019 587.284 254.45 590.423 273.47L554.043 290.159L563.983 305.276C563.983 305.276 532.885 315.812 509.616 345.146C509.616 345.146 496.34 321.174 491.395 305.276L508.485 292.444L492.269 278.999C492.269 278.999 506.707 255.707 525.912 252.988L531.457 262.46L576.488 251.019Z" fill="#110128"/>
<path d="M572.552 252.019C572.552 252.019 533.981 284.046 514.174 324.491C514.174 324.491 507.34 295.158 519.644 261.379C521.466 256.374 533.981 260.935 533.981 260.935L572.552 252.019Z" fill="#F8F683"/>
<path d="M565.593 239.603L533.639 255.434L528.417 244.287C528.417 244.287 512.803 263.527 514.717 278.999L531.457 260.148C531.457 260.148 539.771 281.26 545.521 281.379C554.987 281.575 576.488 251.019 576.488 251.019C576.488 251.019 569.239 237.992 565.593 239.603Z" fill="#F5982E"/>
<path d="M666.668 374.956C657.67 375.982 642.614 425.446 642.614 425.446L554.766 487.667H613.022C627.039 481.952 651.259 471.527 666.668 461.834V374.956Z" fill="#110128"/>
<path d="M251.169 142.87H72.4317C57.2817 142.87 45 130.589 45 115.438C45 100.289 57.2817 88.0061 72.4317 88.0061H251.169C266.319 88.0061 278.601 100.289 278.601 115.438C278.601 130.589 266.319 142.87 251.169 142.87Z" fill="#E1E0DE"/>
<path d="M259.176 134.864H80.4401C65.2895 134.864 53.0078 122.583 53.0078 107.432C53.0078 92.2829 65.2895 80.0003 80.4401 80.0003H259.176C274.327 80.0003 286.608 92.2829 286.608 107.432C286.608 122.583 274.327 134.864 259.176 134.864Z" fill="#110128"/>
<path d="M140.528 101.615H136.29V112.609H133.733V101.615H129.496V99.356H140.528V101.615ZM144.625 112.796C143.841 112.796 143.132 112.665 142.497 112.404C141.863 112.13 141.321 111.763 140.873 111.303C140.425 110.83 140.077 110.295 139.828 109.697C139.591 109.088 139.473 108.447 139.473 107.775C139.473 106.841 139.679 105.989 140.089 105.217C140.512 104.446 141.11 103.83 141.881 103.369C142.665 102.896 143.586 102.66 144.644 102.66C145.714 102.66 146.629 102.896 147.388 103.369C148.147 103.83 148.726 104.446 149.124 105.217C149.535 105.976 149.74 106.798 149.74 107.681C149.74 107.831 149.734 107.986 149.721 108.148C149.709 108.297 149.696 108.422 149.684 108.521H142.124C142.174 109.019 142.317 109.455 142.553 109.828C142.802 110.201 143.113 110.488 143.487 110.687C143.872 110.873 144.283 110.967 144.719 110.967C145.216 110.967 145.683 110.848 146.119 110.612C146.567 110.363 146.871 110.04 147.033 109.641L149.18 110.239C148.943 110.736 148.601 111.178 148.153 111.564C147.718 111.95 147.201 112.255 146.604 112.479C146.007 112.69 145.347 112.796 144.625 112.796ZM142.068 106.935H147.183C147.133 106.437 146.99 106.008 146.753 105.647C146.529 105.273 146.231 104.987 145.857 104.788C145.484 104.576 145.067 104.471 144.607 104.471C144.159 104.471 143.748 104.576 143.375 104.788C143.014 104.987 142.715 105.273 142.479 105.647C142.255 106.008 142.118 106.437 142.068 106.935ZM151.245 98.9827H153.746V109.473C153.746 109.921 153.821 110.226 153.97 110.388C154.12 110.537 154.325 110.612 154.586 110.612C154.785 110.612 154.991 110.587 155.202 110.537C155.414 110.488 155.601 110.425 155.762 110.351L156.098 112.255C155.762 112.416 155.37 112.541 154.922 112.628C154.474 112.715 154.07 112.759 153.709 112.759C152.925 112.759 152.315 112.553 151.88 112.143C151.457 111.72 151.245 111.122 151.245 110.351V98.9827ZM161.724 112.796C160.94 112.796 160.231 112.665 159.596 112.404C158.961 112.13 158.42 111.763 157.972 111.303C157.524 110.83 157.176 110.295 156.927 109.697C156.69 109.088 156.572 108.447 156.572 107.775C156.572 106.841 156.777 105.989 157.188 105.217C157.611 104.446 158.209 103.83 158.98 103.369C159.764 102.896 160.685 102.66 161.743 102.66C162.813 102.66 163.728 102.896 164.487 103.369C165.246 103.83 165.825 104.446 166.223 105.217C166.633 105.976 166.839 106.798 166.839 107.681C166.839 107.831 166.833 107.986 166.82 108.148C166.808 108.297 166.795 108.422 166.783 108.521H159.223C159.273 109.019 159.416 109.455 159.652 109.828C159.901 110.201 160.212 110.488 160.585 110.687C160.971 110.873 161.382 110.967 161.817 110.967C162.315 110.967 162.782 110.848 163.217 110.612C163.665 110.363 163.97 110.04 164.132 109.641L166.279 110.239C166.042 110.736 165.7 111.178 165.252 111.564C164.817 111.95 164.3 112.255 163.703 112.479C163.105 112.69 162.446 112.796 161.724 112.796ZM159.167 106.935H164.281C164.232 106.437 164.089 106.008 163.852 105.647C163.628 105.273 163.329 104.987 162.956 104.788C162.583 104.576 162.166 104.471 161.705 104.471C161.257 104.471 160.847 104.576 160.473 104.788C160.113 104.987 159.814 105.273 159.577 105.647C159.353 106.008 159.217 106.437 159.167 106.935ZM174.224 112.796C173.465 112.796 172.793 112.628 172.208 112.292C171.636 111.944 171.188 111.477 170.864 110.892V116.585H168.363V102.828H170.547V104.508C170.92 103.936 171.393 103.488 171.965 103.164C172.538 102.828 173.191 102.66 173.925 102.66C174.585 102.66 175.188 102.791 175.736 103.052C176.296 103.313 176.781 103.68 177.192 104.153C177.603 104.614 177.92 105.149 178.144 105.759C178.38 106.356 178.499 107.003 178.499 107.7C178.499 108.646 178.312 109.504 177.939 110.276C177.578 111.048 177.074 111.664 176.427 112.124C175.792 112.572 175.058 112.796 174.224 112.796ZM173.384 110.668C173.77 110.668 174.118 110.587 174.429 110.425C174.74 110.264 175.008 110.046 175.232 109.772C175.468 109.486 175.643 109.168 175.755 108.82C175.879 108.459 175.941 108.086 175.941 107.7C175.941 107.289 175.873 106.91 175.736 106.561C175.612 106.213 175.425 105.908 175.176 105.647C174.927 105.373 174.635 105.161 174.299 105.012C173.975 104.863 173.62 104.788 173.235 104.788C172.998 104.788 172.756 104.832 172.507 104.919C172.27 104.993 172.04 105.105 171.816 105.255C171.592 105.404 171.393 105.578 171.219 105.777C171.057 105.976 170.939 106.194 170.864 106.431V108.727C171.013 109.088 171.212 109.417 171.461 109.716C171.723 110.015 172.021 110.251 172.357 110.425C172.693 110.587 173.036 110.668 173.384 110.668ZM189.284 112.609H186.783V107.121C186.783 106.362 186.633 105.796 186.335 105.423C186.048 105.049 185.65 104.863 185.14 104.863C184.841 104.863 184.524 104.95 184.188 105.124C183.852 105.298 183.547 105.541 183.273 105.852C183.012 106.151 182.819 106.499 182.695 106.897V112.609H180.193V98.9827H182.695V104.639C183.056 104.016 183.547 103.531 184.169 103.183C184.792 102.834 185.47 102.66 186.204 102.66C186.839 102.66 187.355 102.772 187.753 102.996C188.152 103.208 188.463 103.5 188.687 103.873C188.911 104.234 189.066 104.645 189.153 105.105C189.24 105.553 189.284 106.02 189.284 106.505V112.609ZM195.976 112.796C195.18 112.796 194.464 112.665 193.83 112.404C193.195 112.13 192.654 111.757 192.206 111.284C191.77 110.811 191.434 110.27 191.198 109.66C190.961 109.05 190.843 108.409 190.843 107.737C190.843 107.053 190.961 106.406 191.198 105.796C191.434 105.186 191.77 104.645 192.206 104.172C192.654 103.699 193.195 103.332 193.83 103.071C194.464 102.797 195.18 102.66 195.976 102.66C196.773 102.66 197.482 102.797 198.104 103.071C198.739 103.332 199.28 103.699 199.728 104.172C200.176 104.645 200.512 105.186 200.736 105.796C200.973 106.406 201.091 107.053 201.091 107.737C201.091 108.409 200.973 109.05 200.736 109.66C200.512 110.27 200.176 110.811 199.728 111.284C199.293 111.757 198.758 112.13 198.123 112.404C197.488 112.665 196.773 112.796 195.976 112.796ZM193.419 107.737C193.419 108.31 193.531 108.82 193.755 109.268C193.979 109.704 194.284 110.046 194.67 110.295C195.055 110.544 195.491 110.668 195.976 110.668C196.449 110.668 196.879 110.544 197.264 110.295C197.65 110.033 197.955 109.685 198.179 109.249C198.415 108.801 198.534 108.291 198.534 107.719C198.534 107.159 198.415 106.655 198.179 106.207C197.955 105.759 197.65 105.41 197.264 105.161C196.879 104.912 196.449 104.788 195.976 104.788C195.491 104.788 195.055 104.919 194.67 105.18C194.284 105.429 193.979 105.777 193.755 106.225C193.531 106.661 193.419 107.165 193.419 107.737ZM211.87 112.609H209.369V107.121C209.369 106.337 209.232 105.765 208.958 105.404C208.684 105.043 208.305 104.863 207.819 104.863C207.483 104.863 207.141 104.95 206.793 105.124C206.457 105.298 206.152 105.541 205.878 105.852C205.604 106.151 205.405 106.499 205.281 106.897V112.609H202.779V102.828H205.038V104.639C205.287 104.216 205.604 103.861 205.99 103.575C206.376 103.276 206.818 103.052 207.315 102.903C207.826 102.741 208.361 102.66 208.921 102.66C209.53 102.66 210.028 102.772 210.414 102.996C210.812 103.208 211.111 103.5 211.31 103.873C211.522 104.234 211.665 104.645 211.739 105.105C211.826 105.566 211.87 106.032 211.87 106.505V112.609ZM218.581 112.796C217.797 112.796 217.088 112.665 216.453 112.404C215.818 112.13 215.277 111.763 214.829 111.303C214.381 110.83 214.032 110.295 213.784 109.697C213.547 109.088 213.429 108.447 213.429 107.775C213.429 106.841 213.634 105.989 214.045 105.217C214.468 104.446 215.065 103.83 215.837 103.369C216.621 102.896 217.542 102.66 218.6 102.66C219.67 102.66 220.584 102.896 221.344 103.369C222.103 103.83 222.681 104.446 223.08 105.217C223.49 105.976 223.696 106.798 223.696 107.681C223.696 107.831 223.689 107.986 223.677 108.148C223.664 108.297 223.652 108.422 223.64 108.521H216.08C216.129 109.019 216.272 109.455 216.509 109.828C216.758 110.201 217.069 110.488 217.442 110.687C217.828 110.873 218.239 110.967 218.674 110.967C219.172 110.967 219.639 110.848 220.074 110.612C220.522 110.363 220.827 110.04 220.989 109.641L223.136 110.239C222.899 110.736 222.557 111.178 222.109 111.564C221.673 111.95 221.157 112.255 220.56 112.479C219.962 112.69 219.303 112.796 218.581 112.796ZM216.024 106.935H221.138C221.088 106.437 220.945 106.008 220.709 105.647C220.485 105.273 220.186 104.987 219.813 104.788C219.44 104.576 219.023 104.471 218.562 104.471C218.114 104.471 217.704 104.576 217.33 104.788C216.969 104.987 216.671 105.273 216.434 105.647C216.21 106.008 216.073 106.437 216.024 106.935Z" fill="#FEF6F4"/>
<path d="M104.324 107.433C104.324 120.033 94.1107 130.246 81.5116 130.246C68.9127 130.246 58.6992 120.033 58.6992 107.433C58.6992 94.8341 68.9127 84.6208 81.5116 84.6208C94.1107 84.6208 104.324 94.8341 104.324 107.433Z" fill="#FEF6F4"/>
<path d="M91.3565 95.4862C90.4393 94.9315 89.5216 94.3755 88.6038 93.8195C87.2033 96.3169 85.6393 98.7036 83.9242 100.966C84.8581 101.697 85.7924 102.428 86.7262 103.157C87.4622 103.728 87.5981 104.802 87.0085 105.54C84.8388 108.254 82.4606 110.792 79.8924 113.133C79.195 113.769 78.1138 113.704 77.4972 113.006C76.7076 112.121 75.9185 111.237 75.1294 110.352C72.9825 112.21 70.7024 113.926 68.3008 115.486C68.9148 116.365 69.5289 117.245 70.1429 118.125C72.5024 121.65 77.7008 122.466 81.3262 119.45C85.8748 115.67 89.9278 111.344 93.4049 106.56C96.1805 102.746 95.0278 97.6129 91.3565 95.4862Z" fill="#110128"/>
<path d="M84.2524 99.9153C85.528 98.1793 86.7139 96.3699 87.8067 94.4966C88.301 93.6499 89.4092 93.3766 90.3103 93.9033C91.2108 94.4299 91.5379 95.6033 91.0128 96.5046C89.8624 98.4766 88.6128 100.382 87.2701 102.211C86.6576 103.046 85.4786 103.171 84.6644 102.514C83.8494 101.855 83.6769 100.702 84.2524 99.9153Z" fill="#110128"/>
<path d="M69.0663 114.497C70.8647 113.285 72.5924 111.984 74.2428 110.599C74.9897 109.973 76.1517 110.071 76.8621 110.841C77.5715 111.611 77.5225 112.796 76.7288 113.461C74.9903 114.92 73.1714 116.289 71.2772 117.565C70.4126 118.149 69.2204 117.899 68.6367 117.033C68.0517 116.169 68.2533 115.045 69.0663 114.497Z" fill="#110128"/>
<path d="M251.169 222.286H72.4317C57.2817 222.286 45 210.005 45 194.854C45 179.703 57.2817 167.422 72.4317 167.422H251.169C266.319 167.422 278.601 179.703 278.601 194.854C278.601 210.005 266.319 222.286 251.169 222.286Z" fill="#E1E0DE"/>
<path d="M259.176 214.28H80.4401C65.2895 214.28 53.0078 201.999 53.0078 186.848C53.0078 171.698 65.2895 159.416 80.4401 159.416H259.176C274.327 159.416 286.608 171.698 286.608 186.848C286.608 201.999 274.327 214.28 259.176 214.28Z" fill="#110128"/>
<path d="M104.324 186.848C104.324 199.447 94.1107 209.66 81.5116 209.66C68.9127 209.66 58.6992 199.447 58.6992 186.848C58.6992 174.248 68.9127 164.035 81.5116 164.035C94.1107 164.035 104.324 174.248 104.324 186.848Z" fill="#FEF6F4"/>
<path d="M98.2763 185.961L93.5919 198.507C92.9253 200.294 90.9367 201.201 89.1398 200.53L66.7774 192.181C64.9903 191.514 64.0835 189.526 64.7502 187.739L69.4346 175.193C69.5919 174.771 69.8274 174.391 70.1195 174.079C70.4269 173.726 70.8253 173.442 71.2482 173.249C72.0482 172.893 72.9831 172.831 73.8763 173.166L96.2393 181.514C97.143 181.851 97.7993 182.506 98.1799 183.303C98.3731 183.726 98.4778 184.198 98.4887 184.67C98.505 185.098 98.4335 185.539 98.2763 185.961Z" fill="#110128"/>
<path d="M98.1776 183.303L83.4521 186.147C82.3312 186.361 81.2021 185.939 80.5052 185.047L71.2459 173.249C70.8229 173.442 70.4245 173.726 70.1172 174.079L79.3995 185.909C79.9136 186.569 80.5864 187.054 81.3255 187.33C82.0751 187.61 82.9016 187.685 83.7224 187.523L98.4864 184.67C98.4755 184.198 98.3708 183.726 98.1776 183.303Z" fill="#FEF6F4"/>
<path d="M139.822 189.766V192.024H130.62V178.771H139.654V181.03H133.196V184.222H138.777V186.312H133.196V189.766H139.822ZM141.532 188.03V185.771H147.188V188.03H141.532ZM164.585 192.024H162.083V186.536C162.083 185.765 161.946 185.199 161.673 184.838C161.411 184.464 161.044 184.278 160.571 184.278C160.086 184.278 159.619 184.471 159.171 184.856C158.736 185.23 158.425 185.721 158.238 186.331V192.024H155.737V186.536C155.737 185.752 155.6 185.18 155.326 184.819C155.065 184.458 154.698 184.278 154.225 184.278C153.739 184.278 153.273 184.464 152.825 184.838C152.389 185.211 152.078 185.703 151.891 186.312V192.024H149.39V182.243H151.649V184.054C152.022 183.419 152.52 182.934 153.142 182.598C153.764 182.249 154.48 182.075 155.289 182.075C156.098 182.075 156.726 182.274 157.174 182.672C157.634 183.071 157.927 183.562 158.051 184.147C158.45 183.475 158.954 182.965 159.563 182.616C160.186 182.256 160.882 182.075 161.654 182.075C162.264 182.075 162.755 182.187 163.129 182.411C163.514 182.623 163.813 182.915 164.025 183.288C164.236 183.649 164.379 184.06 164.454 184.52C164.541 184.981 164.585 185.448 164.585 185.92V192.024ZM166.09 189.131C166.09 188.496 166.265 187.943 166.613 187.47C166.974 186.984 167.472 186.611 168.106 186.35C168.741 186.088 169.469 185.958 170.29 185.958C170.701 185.958 171.118 185.989 171.541 186.051C171.964 186.113 172.331 186.213 172.642 186.35V185.827C172.642 185.205 172.456 184.726 172.082 184.39C171.721 184.054 171.18 183.886 170.458 183.886C169.923 183.886 169.413 183.979 168.928 184.166C168.442 184.352 167.932 184.626 167.397 184.987L166.594 183.344C167.241 182.921 167.901 182.604 168.573 182.392C169.257 182.181 169.973 182.075 170.72 182.075C172.113 182.075 173.196 182.424 173.968 183.12C174.752 183.817 175.144 184.813 175.144 186.107V189.224C175.144 189.486 175.187 189.672 175.274 189.784C175.374 189.896 175.529 189.965 175.741 189.99V192.024C175.517 192.062 175.312 192.093 175.125 192.118C174.951 192.143 174.801 192.155 174.677 192.155C174.179 192.155 173.8 192.043 173.538 191.819C173.289 191.595 173.134 191.321 173.072 190.998L173.016 190.494C172.593 191.041 172.064 191.464 171.429 191.763C170.794 192.062 170.147 192.211 169.488 192.211C168.841 192.211 168.256 192.08 167.733 191.819C167.223 191.545 166.818 191.178 166.52 190.718C166.233 190.245 166.09 189.716 166.09 189.131ZM172.176 189.635C172.313 189.486 172.425 189.336 172.512 189.187C172.599 189.038 172.642 188.901 172.642 188.776V187.787C172.344 187.663 172.02 187.569 171.672 187.507C171.323 187.432 170.993 187.395 170.682 187.395C170.035 187.395 169.5 187.538 169.077 187.824C168.666 188.098 168.461 188.465 168.461 188.926C168.461 189.175 168.529 189.411 168.666 189.635C168.803 189.859 169.002 190.04 169.264 190.176C169.525 190.313 169.836 190.382 170.197 190.382C170.57 190.382 170.937 190.313 171.298 190.176C171.659 190.027 171.952 189.847 172.176 189.635ZM177.481 192.024V182.243H179.982V192.024H177.481ZM177.481 180.88V178.398H179.982V180.88H177.481ZM182.22 178.398H184.722V188.888C184.722 189.336 184.796 189.641 184.946 189.803C185.095 189.952 185.3 190.027 185.562 190.027C185.761 190.027 185.966 190.002 186.178 189.952C186.389 189.903 186.576 189.84 186.738 189.766L187.074 191.67C186.738 191.832 186.346 191.956 185.898 192.043C185.45 192.13 185.045 192.174 184.684 192.174C183.9 192.174 183.29 191.968 182.855 191.558C182.432 191.135 182.22 190.537 182.22 189.766V178.398ZM191.465 189.131C191.465 188.496 191.64 187.943 191.988 187.47C192.349 186.984 192.847 186.611 193.481 186.35C194.116 186.088 194.844 185.958 195.665 185.958C196.076 185.958 196.493 185.989 196.916 186.051C197.339 186.113 197.706 186.213 198.017 186.35V185.827C198.017 185.205 197.831 184.726 197.457 184.39C197.096 184.054 196.555 183.886 195.833 183.886C195.298 183.886 194.788 183.979 194.303 184.166C193.817 184.352 193.307 184.626 192.772 184.987L191.969 183.344C192.616 182.921 193.276 182.604 193.948 182.392C194.632 182.181 195.348 182.075 196.095 182.075C197.488 182.075 198.571 182.424 199.343 183.12C200.127 183.817 200.519 184.813 200.519 186.107V189.224C200.519 189.486 200.562 189.672 200.649 189.784C200.749 189.896 200.904 189.965 201.116 189.99V192.024C200.892 192.062 200.687 192.093 200.5 192.118C200.326 192.143 200.176 192.155 200.052 192.155C199.554 192.155 199.175 192.043 198.913 191.819C198.664 191.595 198.509 191.321 198.447 190.998L198.391 190.494C197.968 191.041 197.439 191.464 196.804 191.763C196.169 192.062 195.522 192.211 194.863 192.211C194.216 192.211 193.631 192.08 193.108 191.819C192.598 191.545 192.193 191.178 191.895 190.718C191.608 190.245 191.465 189.716 191.465 189.131ZM197.551 189.635C197.688 189.486 197.8 189.336 197.887 189.187C197.974 189.038 198.017 188.901 198.017 188.776V187.787C197.719 187.663 197.395 187.569 197.047 187.507C196.698 187.432 196.368 187.395 196.057 187.395C195.41 187.395 194.875 187.538 194.452 187.824C194.041 188.098 193.836 188.465 193.836 188.926C193.836 189.175 193.904 189.411 194.041 189.635C194.178 189.859 194.377 190.04 194.639 190.176C194.9 190.313 195.211 190.382 195.572 190.382C195.945 190.382 196.312 190.313 196.673 190.176C197.034 190.027 197.327 189.847 197.551 189.635ZM202.259 187.134C202.259 186.188 202.445 185.336 202.819 184.576C203.192 183.805 203.709 183.195 204.368 182.747C205.028 182.299 205.781 182.075 206.627 182.075C207.349 182.075 207.996 182.256 208.568 182.616C209.153 182.965 209.607 183.413 209.931 183.96V178.398H212.432V189.224C212.432 189.486 212.476 189.672 212.563 189.784C212.65 189.896 212.799 189.965 213.011 189.99V192.024C212.575 192.112 212.221 192.155 211.947 192.155C211.499 192.155 211.125 192.043 210.827 191.819C210.541 191.595 210.379 191.303 210.341 190.942L210.304 190.326C209.943 190.936 209.452 191.402 208.829 191.726C208.22 192.049 207.579 192.211 206.907 192.211C206.235 192.211 205.613 192.08 205.04 191.819C204.48 191.558 203.989 191.197 203.565 190.736C203.155 190.276 202.831 189.741 202.595 189.131C202.371 188.509 202.259 187.843 202.259 187.134ZM209.931 188.44V186.107C209.806 185.746 209.607 185.423 209.333 185.136C209.06 184.85 208.755 184.626 208.419 184.464C208.083 184.29 207.747 184.203 207.411 184.203C207.025 184.203 206.677 184.284 206.365 184.446C206.054 184.608 205.781 184.825 205.544 185.099C205.32 185.373 205.146 185.69 205.021 186.051C204.909 186.412 204.853 186.792 204.853 187.19C204.853 187.588 204.916 187.968 205.04 188.328C205.177 188.677 205.37 188.982 205.619 189.243C205.868 189.504 206.154 189.71 206.477 189.859C206.813 190.008 207.174 190.083 207.56 190.083C207.797 190.083 208.033 190.046 208.269 189.971C208.518 189.884 208.749 189.772 208.96 189.635C209.184 189.486 209.377 189.312 209.539 189.112C209.713 188.901 209.844 188.677 209.931 188.44ZM214.29 187.134C214.29 186.188 214.477 185.336 214.85 184.576C215.223 183.805 215.74 183.195 216.399 182.747C217.059 182.299 217.812 182.075 218.658 182.075C219.38 182.075 220.027 182.256 220.599 182.616C221.184 182.965 221.638 183.413 221.962 183.96V178.398H224.463V189.224C224.463 189.486 224.507 189.672 224.594 189.784C224.681 189.896 224.83 189.965 225.042 189.99V192.024C224.606 192.112 224.252 192.155 223.978 192.155C223.53 192.155 223.157 192.043 222.858 191.819C222.572 191.595 222.41 191.303 222.373 190.942L222.335 190.326C221.974 190.936 221.483 191.402 220.861 191.726C220.251 192.049 219.61 192.211 218.938 192.211C218.266 192.211 217.644 192.08 217.071 191.819C216.511 191.558 216.02 191.197 215.597 190.736C215.186 190.276 214.862 189.741 214.626 189.131C214.402 188.509 214.29 187.843 214.29 187.134ZM221.962 188.44V186.107C221.838 185.746 221.638 185.423 221.365 185.136C221.091 184.85 220.786 184.626 220.45 184.464C220.114 184.29 219.778 184.203 219.442 184.203C219.056 184.203 218.708 184.284 218.397 184.446C218.086 184.608 217.812 184.825 217.575 185.099C217.351 185.373 217.177 185.69 217.053 186.051C216.941 186.412 216.885 186.792 216.885 187.19C216.885 187.588 216.947 187.968 217.071 188.328C217.208 188.677 217.401 188.982 217.65 189.243C217.899 189.504 218.185 189.71 218.509 189.859C218.845 190.008 219.206 190.083 219.591 190.083C219.828 190.083 220.064 190.046 220.301 189.971C220.55 189.884 220.78 189.772 220.991 189.635C221.215 189.486 221.408 189.312 221.57 189.112C221.744 188.901 221.875 188.677 221.962 188.44ZM232.743 184.408C231.984 184.408 231.305 184.558 230.708 184.856C230.111 185.143 229.681 185.56 229.42 186.107V192.024H226.919V182.243H229.215V184.334C229.563 183.662 230.005 183.133 230.54 182.747C231.075 182.361 231.641 182.15 232.239 182.112C232.376 182.112 232.481 182.112 232.556 182.112C232.631 182.112 232.693 182.119 232.743 182.131V184.408ZM238.546 192.211C237.762 192.211 237.052 192.08 236.418 191.819C235.783 191.545 235.242 191.178 234.794 190.718C234.346 190.245 233.997 189.71 233.748 189.112C233.512 188.503 233.394 187.862 233.394 187.19C233.394 186.256 233.599 185.404 234.01 184.632C234.433 183.861 235.03 183.245 235.802 182.784C236.586 182.312 237.507 182.075 238.564 182.075C239.635 182.075 240.549 182.312 241.308 182.784C242.068 183.245 242.646 183.861 243.044 184.632C243.455 185.392 243.66 186.213 243.66 187.096C243.66 187.246 243.654 187.401 243.642 187.563C243.629 187.712 243.617 187.837 243.604 187.936H236.044C236.094 188.434 236.237 188.87 236.474 189.243C236.723 189.616 237.034 189.903 237.407 190.102C237.793 190.288 238.204 190.382 238.639 190.382C239.137 190.382 239.604 190.264 240.039 190.027C240.487 189.778 240.792 189.455 240.954 189.056L243.1 189.654C242.864 190.152 242.522 190.593 242.074 190.979C241.638 191.365 241.122 191.67 240.524 191.894C239.927 192.105 239.268 192.211 238.546 192.211ZM235.988 186.35H241.103C241.053 185.852 240.91 185.423 240.674 185.062C240.45 184.688 240.151 184.402 239.778 184.203C239.404 183.992 238.988 183.886 238.527 183.886C238.079 183.886 237.668 183.992 237.295 184.203C236.934 184.402 236.636 184.688 236.399 185.062C236.175 185.423 236.038 185.852 235.988 186.35ZM248.787 192.211C247.953 192.211 247.157 192.074 246.398 191.8C245.638 191.527 244.985 191.122 244.438 190.587L245.334 188.963C245.918 189.436 246.491 189.784 247.051 190.008C247.623 190.232 248.171 190.344 248.694 190.344C249.179 190.344 249.565 190.257 249.851 190.083C250.15 189.909 250.299 189.648 250.299 189.299C250.299 189.063 250.218 188.882 250.056 188.758C249.894 188.621 249.658 188.503 249.347 188.403C249.048 188.304 248.681 188.192 248.246 188.067C247.524 187.831 246.92 187.6 246.435 187.376C245.95 187.152 245.582 186.872 245.334 186.536C245.097 186.188 244.979 185.746 244.979 185.211C244.979 184.564 245.141 184.01 245.464 183.55C245.8 183.077 246.261 182.71 246.846 182.448C247.443 182.187 248.14 182.056 248.936 182.056C249.633 182.056 250.293 182.168 250.915 182.392C251.537 182.604 252.103 182.952 252.614 183.438L251.606 185.024C251.108 184.639 250.635 184.359 250.187 184.184C249.739 183.998 249.285 183.904 248.824 183.904C248.563 183.904 248.314 183.936 248.078 183.998C247.854 184.06 247.667 184.166 247.518 184.315C247.381 184.452 247.312 184.651 247.312 184.912C247.312 185.149 247.374 185.336 247.499 185.472C247.636 185.597 247.835 185.709 248.096 185.808C248.37 185.908 248.7 186.02 249.086 186.144C249.87 186.368 250.529 186.599 251.064 186.835C251.612 187.072 252.022 187.364 252.296 187.712C252.57 188.048 252.707 188.515 252.707 189.112C252.707 190.083 252.352 190.842 251.643 191.39C250.934 191.937 249.982 192.211 248.787 192.211ZM258.011 192.211C257.177 192.211 256.381 192.074 255.622 191.8C254.862 191.527 254.209 191.122 253.662 190.587L254.558 188.963C255.142 189.436 255.715 189.784 256.275 190.008C256.847 190.232 257.395 190.344 257.918 190.344C258.403 190.344 258.789 190.257 259.075 190.083C259.374 189.909 259.523 189.648 259.523 189.299C259.523 189.063 259.442 188.882 259.28 188.758C259.118 188.621 258.882 188.503 258.571 188.403C258.272 188.304 257.905 188.192 257.47 188.067C256.748 187.831 256.144 187.6 255.659 187.376C255.174 187.152 254.806 186.872 254.558 186.536C254.321 186.188 254.203 185.746 254.203 185.211C254.203 184.564 254.365 184.01 254.688 183.55C255.024 183.077 255.485 182.71 256.07 182.448C256.667 182.187 257.364 182.056 258.16 182.056C258.857 182.056 259.517 182.168 260.139 182.392C260.761 182.604 261.327 182.952 261.838 183.438L260.83 185.024C260.332 184.639 259.859 184.359 259.411 184.184C258.963 183.998 258.509 183.904 258.048 183.904C257.787 183.904 257.538 183.936 257.302 183.998C257.078 184.06 256.891 184.166 256.742 184.315C256.605 184.452 256.536 184.651 256.536 184.912C256.536 185.149 256.598 185.336 256.723 185.472C256.86 185.597 257.059 185.709 257.32 185.808C257.594 185.908 257.924 186.02 258.31 186.144C259.094 186.368 259.753 186.599 260.288 186.835C260.836 187.072 261.246 187.364 261.52 187.712C261.794 188.048 261.931 188.515 261.931 189.112C261.931 190.083 261.576 190.842 260.867 191.39C260.158 191.937 259.206 192.211 258.011 192.211Z" fill="#FEF6F4"/>
<path d="M251.169 301.708H72.4317C57.2817 301.708 45 289.427 45 274.276C45 259.125 57.2817 246.844 72.4317 246.844H251.169C266.319 246.844 278.601 259.125 278.601 274.276C278.601 289.427 266.319 301.708 251.169 301.708Z" fill="#E1E0DE"/>
<path d="M259.176 293.703H80.4401C65.2895 293.703 53.0078 281.422 53.0078 266.271C53.0078 251.12 65.2895 238.839 80.4401 238.839H259.176C274.327 238.839 286.608 251.12 286.608 266.271C286.608 281.422 274.327 293.703 259.176 293.703Z" fill="#110128"/>
<path d="M104.324 266.271C104.324 278.869 94.1107 289.084 81.5116 289.084C68.9127 289.084 58.6992 278.869 58.6992 266.271C58.6992 253.672 68.9127 243.459 81.5116 243.459C94.1107 243.459 104.324 253.672 104.324 266.271Z" fill="#FEF6F4"/>
<path d="M81.5099 268.66C78.9746 268.66 76.9188 266.605 76.9188 264.069C76.9188 261.533 78.9746 259.479 81.5099 259.479C84.0454 259.479 86.1011 261.533 86.1011 264.069C86.1011 266.605 84.0454 268.66 81.5099 268.66ZM90.0245 255.333C85.3219 250.631 77.698 250.631 72.9954 255.333C68.2932 260.036 68.2932 267.66 72.9954 272.361L81.5099 280.876L90.0245 272.361C94.7265 267.66 94.7265 260.036 90.0245 255.333Z" fill="#110128"/>
<path d="M130.616 271.447V258.194H133.192V269.189H139.949V271.447H130.616ZM145.718 271.634C144.922 271.634 144.207 271.503 143.572 271.242C142.937 270.968 142.396 270.595 141.948 270.122C141.512 269.649 141.176 269.108 140.94 268.498C140.703 267.888 140.585 267.247 140.585 266.575C140.585 265.891 140.703 265.244 140.94 264.634C141.176 264.024 141.512 263.483 141.948 263.01C142.396 262.537 142.937 262.17 143.572 261.909C144.207 261.635 144.922 261.498 145.718 261.498C146.515 261.498 147.224 261.635 147.847 261.909C148.481 262.17 149.023 262.537 149.47 263.01C149.918 263.483 150.255 264.024 150.479 264.634C150.715 265.244 150.833 265.891 150.833 266.575C150.833 267.247 150.715 267.888 150.479 268.498C150.255 269.108 149.918 269.649 149.47 270.122C149.035 270.595 148.5 270.968 147.865 271.242C147.231 271.503 146.515 271.634 145.718 271.634ZM143.161 266.575C143.161 267.148 143.273 267.658 143.497 268.106C143.721 268.541 144.026 268.884 144.412 269.133C144.798 269.381 145.233 269.506 145.718 269.506C146.191 269.506 146.621 269.381 147.006 269.133C147.392 268.871 147.697 268.523 147.921 268.087C148.158 267.639 148.276 267.129 148.276 266.557C148.276 265.997 148.158 265.493 147.921 265.045C147.697 264.597 147.392 264.248 147.006 263.999C146.621 263.75 146.191 263.626 145.718 263.626C145.233 263.626 144.798 263.757 144.412 264.018C144.026 264.267 143.721 264.615 143.497 265.063C143.273 265.499 143.161 266.003 143.161 266.575ZM157.076 271.634C156.28 271.634 155.564 271.503 154.929 271.242C154.295 270.968 153.753 270.595 153.305 270.122C152.857 269.637 152.509 269.089 152.26 268.479C152.024 267.869 151.905 267.229 151.905 266.557C151.905 265.636 152.111 264.796 152.521 264.037C152.945 263.265 153.542 262.649 154.313 262.189C155.085 261.728 156 261.498 157.057 261.498C158.115 261.498 159.024 261.728 159.783 262.189C160.542 262.649 161.108 263.253 161.481 263.999L159.036 264.746C158.825 264.385 158.545 264.111 158.196 263.925C157.848 263.725 157.462 263.626 157.039 263.626C156.566 263.626 156.13 263.75 155.732 263.999C155.346 264.236 155.041 264.578 154.817 265.026C154.593 265.461 154.481 265.972 154.481 266.557C154.481 267.129 154.593 267.639 154.817 268.087C155.054 268.523 155.365 268.871 155.751 269.133C156.137 269.381 156.566 269.506 157.039 269.506C157.337 269.506 157.617 269.456 157.879 269.357C158.153 269.257 158.395 269.12 158.607 268.946C158.818 268.772 158.974 268.573 159.073 268.349L161.519 269.095C161.295 269.581 160.965 270.016 160.529 270.402C160.106 270.788 159.602 271.093 159.017 271.317C158.445 271.528 157.798 271.634 157.076 271.634ZM162.386 268.554C162.386 267.919 162.56 267.365 162.909 266.893C163.269 266.407 163.767 266.034 164.402 265.773C165.037 265.511 165.765 265.381 166.586 265.381C166.997 265.381 167.413 265.412 167.837 265.474C168.26 265.536 168.627 265.636 168.938 265.773V265.25C168.938 264.628 168.751 264.149 168.378 263.813C168.017 263.477 167.476 263.309 166.754 263.309C166.219 263.309 165.709 263.402 165.223 263.589C164.738 263.775 164.228 264.049 163.693 264.41L162.89 262.767C163.537 262.344 164.197 262.027 164.869 261.815C165.553 261.604 166.269 261.498 167.015 261.498C168.409 261.498 169.492 261.846 170.263 262.543C171.047 263.24 171.439 264.236 171.439 265.53V268.647C171.439 268.909 171.483 269.095 171.57 269.207C171.669 269.319 171.825 269.388 172.037 269.413V271.447C171.813 271.485 171.607 271.516 171.421 271.541C171.246 271.565 171.097 271.578 170.973 271.578C170.475 271.578 170.095 271.466 169.834 271.242C169.585 271.018 169.429 270.744 169.367 270.421L169.311 269.917C168.888 270.464 168.359 270.887 167.725 271.186C167.09 271.485 166.443 271.634 165.783 271.634C165.136 271.634 164.551 271.503 164.029 271.242C163.518 270.968 163.114 270.601 162.815 270.141C162.529 269.668 162.386 269.139 162.386 268.554ZM168.471 269.058C168.608 268.909 168.72 268.759 168.807 268.61C168.894 268.461 168.938 268.324 168.938 268.199V267.21C168.639 267.085 168.316 266.992 167.967 266.93C167.619 266.855 167.289 266.818 166.978 266.818C166.331 266.818 165.796 266.961 165.373 267.247C164.962 267.521 164.757 267.888 164.757 268.349C164.757 268.597 164.825 268.834 164.962 269.058C165.099 269.282 165.298 269.462 165.559 269.599C165.821 269.736 166.132 269.805 166.493 269.805C166.866 269.805 167.233 269.736 167.594 269.599C167.955 269.45 168.247 269.269 168.471 269.058ZM179.547 270.943C179.335 271.03 179.08 271.13 178.782 271.242C178.483 271.354 178.159 271.441 177.811 271.503C177.475 271.578 177.133 271.615 176.784 271.615C176.324 271.615 175.901 271.534 175.515 271.373C175.129 271.211 174.818 270.956 174.582 270.607C174.358 270.246 174.246 269.78 174.246 269.207V263.589H172.958V261.666H174.246V258.493H176.747V261.666H178.8V263.589H176.747V268.367C176.759 268.703 176.853 268.946 177.027 269.095C177.201 269.245 177.419 269.319 177.68 269.319C177.942 269.319 178.197 269.276 178.446 269.189C178.694 269.101 178.894 269.027 179.043 268.965L179.547 270.943ZM180.85 271.447V261.666H183.351V271.447H180.85ZM180.85 260.303V257.821H183.351V260.303H180.85ZM190.125 271.634C189.328 271.634 188.613 271.503 187.978 271.242C187.343 270.968 186.802 270.595 186.354 270.122C185.919 269.649 185.583 269.108 185.346 268.498C185.11 267.888 184.991 267.247 184.991 266.575C184.991 265.891 185.11 265.244 185.346 264.634C185.583 264.024 185.919 263.483 186.354 263.01C186.802 262.537 187.343 262.17 187.978 261.909C188.613 261.635 189.328 261.498 190.125 261.498C190.921 261.498 191.631 261.635 192.253 261.909C192.887 262.17 193.429 262.537 193.877 263.01C194.325 263.483 194.661 264.024 194.885 264.634C195.121 265.244 195.239 265.891 195.239 266.575C195.239 267.247 195.121 267.888 194.885 268.498C194.661 269.108 194.325 269.649 193.877 270.122C193.441 270.595 192.906 270.968 192.271 271.242C191.637 271.503 190.921 271.634 190.125 271.634ZM187.567 266.575C187.567 267.148 187.679 267.658 187.903 268.106C188.127 268.541 188.432 268.884 188.818 269.133C189.204 269.381 189.639 269.506 190.125 269.506C190.598 269.506 191.027 269.381 191.413 269.133C191.799 268.871 192.103 268.523 192.327 268.087C192.564 267.639 192.682 267.129 192.682 266.557C192.682 265.997 192.564 265.493 192.327 265.045C192.103 264.597 191.799 264.248 191.413 263.999C191.027 263.75 190.598 263.626 190.125 263.626C189.639 263.626 189.204 263.757 188.818 264.018C188.432 264.267 188.127 264.615 187.903 265.063C187.679 265.499 187.567 266.003 187.567 266.575ZM206.018 271.447H203.517V265.959C203.517 265.175 203.38 264.603 203.106 264.242C202.833 263.881 202.453 263.701 201.968 263.701C201.632 263.701 201.29 263.788 200.941 263.962C200.605 264.136 200.3 264.379 200.026 264.69C199.753 264.989 199.554 265.337 199.429 265.735V271.447H196.928V261.666H199.186V263.477C199.435 263.053 199.753 262.699 200.138 262.413C200.524 262.114 200.966 261.89 201.464 261.741C201.974 261.579 202.509 261.498 203.069 261.498C203.679 261.498 204.177 261.61 204.562 261.834C204.961 262.045 205.259 262.338 205.458 262.711C205.67 263.072 205.813 263.483 205.888 263.943C205.975 264.404 206.018 264.87 206.018 265.343V271.447Z" fill="#FEF6F4"/>
</g>
<defs>
<clipPath id="clip0_381_166">
<rect width="667" height="488" fill="white"/>
</clipPath>
</defs>
</svg>
