<svg width="697" height="106" viewBox="0 0 697 106" fill="none" xmlns="http://www.w3.org/2000/svg">
<path d="M179.277 36.7131C178.857 36.4478 179.587 36.2918 179.457 36.0474C178.737 35.8133 177.948 35.9381 177.218 36.0006C172.511 36.3854 167.754 36.6767 163.137 37.254C160.499 37.5869 158.01 37.6441 155.332 37.5661C152.954 37.4984 150.465 37.8157 148.137 38.1538C142.34 39.0015 136.554 39.8337 130.638 40.4682C123.942 41.186 117.206 41.7633 110.471 42.3666C107.952 42.5902 105.544 43.0115 102.935 43.0999C100.267 43.1936 97.6089 43.0635 94.9206 43.2144C90.9531 43.438 87.1755 44.0569 83.3079 44.4522C81.8089 44.603 80.2898 44.5666 78.8008 44.8319C72.5647 45.9553 66.2887 46.9903 59.7628 47.63C56.7547 47.9213 53.7866 48.4414 50.7186 48.4934C49.0696 48.5246 47.3307 48.6702 45.7417 48.4726C44.3626 48.3062 43.3932 48.7951 42.2539 48.8991C40.7249 49.0343 39.4457 48.7379 38.0566 48.7951C36.2277 48.8731 34.3789 48.8783 32.5501 48.8835C26.0941 48.9095 19.6782 49.2267 13.2423 49.388C9.98432 49.4712 6.67641 49.6064 3.39849 49.2944C2.66895 49.2267 2.08931 49.0811 1 48.6234C10.9537 47.5624 20.1679 46.1113 29.3821 44.6342C29.3321 44.5198 29.2821 44.4054 29.2322 44.291C28.5726 44.2702 27.913 44.2494 27.0335 44.2234C27.7531 43.6877 29.0323 43.5888 29.4021 43.0219C28.6425 42.7983 27.873 43.0219 27.1235 42.8191C30.0916 42.5018 33.1097 42.273 36.0179 41.8413C40.9248 41.1132 45.9716 40.6035 50.5187 39.2928C51.7779 38.9287 53.147 38.6531 54.716 38.6583C56.6748 38.6687 58.3337 38.0289 60.2126 37.7741C65.3193 37.0772 70.3361 36.2138 75.5229 35.6365C81.4091 34.9863 87.2155 34.1542 93.0318 33.3428C97.9687 32.6563 103.045 32.2714 107.972 31.5797C115.108 30.5811 122.383 29.931 129.558 29.0364C130.178 28.9584 130.848 28.9844 131.487 28.9168C132.357 28.8231 133.326 28.7763 133.466 28.0222C131.477 28.0222 129.678 28.4227 127.87 28.6307C120.564 29.4733 113.139 29.9622 105.794 30.6799C97.6988 31.4757 89.604 32.3026 81.559 33.244C80.3098 33.3896 79.7702 32.8643 78.5609 32.9944C74.3336 33.4468 70.4061 34.409 66.1688 34.8095C62.0814 35.1944 58.0939 35.7977 54.0265 36.2294C51.668 36.479 49.1695 36.3646 47.0009 36.7443C42.4238 37.5453 37.6169 37.7897 33.0497 38.5699C32.9198 38.5907 32.7399 38.523 32.2502 38.4398C35.2284 37.8833 38.0066 37.5453 40.6949 37.0824C43.753 36.5571 47.1008 36.4634 49.949 35.7717C57.8341 33.8577 66.3986 33.218 74.6334 31.9906C87.2155 30.1182 99.9774 28.5943 112.719 27.0496C122.713 25.8378 132.756 24.7871 142.81 23.7417C152.754 22.7067 162.757 21.833 172.731 20.8916C182.055 20.0126 191.359 19.0972 200.703 18.2703C207.619 17.6565 214.585 17.2301 221.49 16.5851C227.826 15.9922 234.242 15.7114 240.578 15.0612C245.105 14.5931 249.752 14.4215 254.33 14.0366C259.406 13.6049 264.513 13.2513 269.61 12.8612C275.406 12.4191 281.193 11.9562 286.989 11.5401C296.573 10.8484 306.167 10.1775 315.761 9.51695C324.045 8.95003 332.34 8.39352 340.635 7.85782C349.999 7.2545 359.363 6.64078 368.737 6.11028C377.242 5.63178 385.766 5.29892 394.271 4.81002C397.289 4.63839 400.297 4.60717 403.325 4.07147C406.423 3.52536 409.941 3.59818 413.289 3.44215C421.784 3.04687 430.278 2.66719 438.773 2.30312C441.351 2.1939 443.93 2.14709 446.508 2.06908C451.715 1.91825 456.921 1.74141 462.128 1.62179C466.295 1.52297 470.463 1.48656 474.63 1.41895C479.447 1.34093 484.274 1.22131 489.091 1.1953C496.107 1.14849 503.112 0.883244 510.138 1.06008C512.636 1.12249 515.164 0.961259 517.653 1.07568C523.489 1.34093 529.355 1.02888 535.202 1.37215C538.65 1.57498 542.167 1.45536 545.655 1.6634C548.793 1.84543 551.981 2.07948 555.119 1.98066C560.146 1.81943 565.103 2.21471 570.06 2.37594C573.088 2.47476 576.186 2.7348 579.244 2.90124C589.048 3.43174 598.792 4.26391 608.625 4.65398C610.094 4.7112 611.593 4.78921 613.033 4.94524C614.831 5.14288 616.37 5.09087 618.209 4.79961C620.098 4.50315 622.387 4.84642 624.485 4.97645C628.713 5.2365 632.92 5.56936 637.147 5.81901C638.476 5.89703 639.756 6.20389 641.245 6.08947C641.584 5.2417 640.575 4.40434 640.975 3.57217C641.325 3.53576 641.365 3.62418 641.385 3.723C641.924 5.93864 642.814 6.33392 647.171 6.70319C651.568 7.07767 656.015 7.20249 660.383 7.69139C667.888 8.52355 675.403 9.32451 682.918 10.1463C683.278 10.1879 683.788 10.2763 683.908 10.4167C684.777 11.4517 686.646 11.4205 688.145 11.2801C690.024 11.1033 690.593 11.4985 690.963 12.2891C691.083 12.5387 691.413 12.7676 691.733 13.1004C688.755 14.021 685.537 14.4319 682.299 13.9742C678.421 13.4229 674.464 13.3085 670.546 12.9704C667.188 12.6844 663.78 12.4451 660.423 12.3723C657.744 12.3151 654.706 12.2371 652.278 13.2773C651.168 13.7558 649.749 13.9066 648.05 13.9274C648.76 14.3643 649.859 14.1459 650.289 14.5411C647.721 15.7478 644.583 15.3005 641.744 15.1497C639.476 15.03 637.177 14.7908 634.889 14.64C627.603 14.1615 620.268 14.8636 612.973 14.3123C614.302 14.9104 614.322 14.848 615.531 14.978C621.007 15.5657 626.664 15.4981 632.11 16.0858C638.886 16.8192 645.712 17.1937 652.597 17.4485C655.076 17.5421 657.484 18.1454 659.963 18.2599C663.301 18.4107 666.549 18.858 670.016 18.702C673.774 18.5303 677.362 19.3313 680.89 20.0022C681.919 20.1998 682.928 20.4547 683.998 20.5639C685.527 20.7251 686.506 21.1724 687.645 21.7185C689.654 22.6807 691.753 23.6481 694.211 24.3295C695.121 24.5791 695.77 24.8912 696 25.4893C694.271 25.8273 692.622 25.5829 691.253 25.2812C686.776 24.2878 681.979 23.8562 677.412 23.0344C676.502 22.8732 675.663 23.102 675.053 23.3517C670.826 25.0732 666.499 24.8236 662.251 23.4973C659.763 22.7223 657.115 22.7223 654.426 22.6235C650.409 22.4727 646.391 22.2646 642.374 22.1346C639.026 22.0254 635.788 21.5729 632.47 21.3909C631.521 21.3389 630.741 21.0996 629.962 20.8812C628.063 20.3559 625.974 20.4339 623.956 20.2883C619.648 19.9762 615.741 18.9308 611.514 18.4731C609.735 18.2807 607.976 17.849 605.867 18.187C611.034 19.1648 616.021 20.1322 620.938 21.2088C625.984 22.3167 629.132 24.7611 634.639 25.947C631.521 26.7791 628.153 25.8378 626.014 27.0184C625.325 26.8884 625.175 26.6647 625.155 26.4879C625.005 24.293 621.867 23.5441 618.689 22.7327C613.262 21.3389 607.426 20.5067 601.93 19.2273C600.63 18.9256 599.181 19.1388 597.892 18.8008C597.302 18.6447 596.943 18.9672 596.803 19.2273C595.963 20.8552 592.805 21.3961 591.026 22.5871C590.417 22.9928 589.128 22.4935 588.508 23.102C588.668 22.3635 588.238 21.8954 586.919 21.6509C586.509 21.5729 586.239 21.2609 585.94 21.0476C584.67 20.1218 583.391 19.2949 580.823 19.9398C578.514 20.5171 576.496 19.8254 574.417 19.4301C573.258 19.2117 572.288 18.8996 571.129 19.7109C570.13 20.4131 568.331 19.8722 567.281 19.4665C565.103 18.6239 563.024 17.6773 560.995 16.7776C559.367 16.0546 557.997 16.0078 556.328 15.9402C552.601 15.7894 548.863 15.5345 545.145 15.5709C540.758 15.6125 536.411 15.2849 532.024 15.4409C531.144 15.4721 530.245 15.4409 529.196 15.4409C529.715 16.0078 530.285 16.6059 529.405 17.1728C528.356 17.8438 526.827 17.8802 525.328 17.8698C519.822 17.8334 514.305 17.6461 508.818 17.7762C503.392 17.901 497.995 18.3483 492.579 18.6187C489.711 18.7644 486.822 18.8424 483.894 18.7696C485.333 18.6239 486.762 18.4835 488.202 18.3379C486.722 17.9478 485.203 18.0466 483.894 18.3223C480.546 19.0348 477.079 19.2012 473.521 19.2637C467.764 19.3677 462.018 19.5601 456.222 19.7214C456.342 20.2571 457.091 20.1842 457.551 20.1374C461.049 19.7838 464.566 20.0802 468.074 19.9762C473.031 19.8306 477.998 19.8046 482.965 19.5809C488.661 19.3261 494.388 19.1856 500.114 19.1128C505.581 19.0452 511.057 19.0452 516.524 19.17C521.52 19.2845 526.487 19.6849 531.474 19.815C537.021 19.9606 542.587 19.8566 548.124 20.0178C553.83 20.1842 559.506 20.5587 565.203 20.798C568.681 20.9436 572.168 20.9956 575.646 21.0996C576.965 21.1412 578.324 21.1412 579.324 21.7445C578.524 22.4571 577.375 22.6599 576.006 22.6495C569.01 22.6027 562.065 22.2594 555.119 21.859C552.101 21.6873 549.053 21.6925 546.015 21.6353C544.536 21.6093 544.696 22.4467 543.267 22.8524C548.953 23.024 554.03 23.1748 559.267 23.3361C558.787 24.059 557.837 23.9654 557.068 23.9498C550.932 23.8562 544.806 23.7209 538.67 23.6273C535.062 23.5753 531.464 23.8614 527.856 23.7313C522.57 23.5441 517.273 23.6637 511.986 23.6065C507.339 23.5545 502.702 23.7729 498.075 23.8146C491.779 23.8718 485.533 24.2358 479.237 24.3035C471.602 24.3867 463.987 24.9224 456.352 24.9848C448.257 25.0524 440.272 25.7441 432.217 25.9262C423.453 26.1238 414.788 26.7583 406.063 27.086C398.159 27.3825 390.293 28.017 382.398 28.355C375.403 28.6567 368.507 29.3588 361.472 29.5253C356.225 29.6501 351.028 30.1754 345.832 30.6175C342.374 30.9087 338.836 31.174 335.308 31.2936C329.302 31.5017 323.416 32.1414 317.46 32.5419C313.182 32.8279 308.845 33.0412 304.658 33.4312C299.351 33.9201 293.874 33.7797 288.658 34.7471C285.31 35.3712 281.592 35.5429 278.015 35.7197C275.176 35.8601 272.448 36.2918 269.65 36.4166C263.514 36.6923 257.577 37.6389 251.311 37.6337C247.574 37.6337 243.716 38.0758 239.939 38.4502C236.561 38.7831 233.183 39.2148 229.715 39.2616C226.887 39.298 224.189 39.7869 221.37 39.9377C217.183 40.1666 213.026 40.6191 208.888 41.0611C201.903 41.8049 194.787 42.0701 187.752 42.6423C183.954 42.9491 180.206 43.5004 176.399 43.7085C170.303 44.0361 164.356 44.8579 158.23 45.0971C155.242 45.2168 152.354 45.6796 149.246 45.3676C148.227 45.2636 147.057 46.0281 145.658 46.1685C142.95 46.4338 140.052 46.8031 137.513 46.7251C133.716 46.6106 130.438 47.3024 126.92 47.526C120.984 47.9057 115.218 48.691 109.321 49.1643C104.754 49.5336 100.277 50.1889 95.7501 50.657C91.2229 51.1303 86.6358 51.4736 82.1287 51.9781C77.8414 52.4618 73.5041 52.7634 69.1969 53.1692C62.621 53.7882 56.0952 54.5475 49.3994 54.8127C47.5606 54.8856 45.7617 55.0416 43.3432 54.9896C48.5699 53.4085 53.6267 52.5086 59.0233 52.0249C63.8303 51.5932 68.5673 50.9899 73.3542 50.501C77.4916 50.0745 81.5491 49.492 85.6465 48.9823C89.8138 48.4674 94.0511 48.0929 98.2085 47.5C101.446 47.0371 104.814 46.6938 108.162 46.3714C110.79 46.1165 113.399 45.7421 116.007 45.4404C118.356 45.1752 120.764 44.9359 123.153 44.7279C131.967 43.9633 140.581 42.7203 149.446 42.0493C155.872 41.5604 162.188 40.6971 168.594 40.1302C171.002 39.9169 173.251 39.4696 175.979 39.2304C170.862 39.0379 166.535 40.1302 161.958 40.4942C159.45 40.6919 156.951 40.8635 154.303 40.7855C154.643 40.3642 155.182 40.3278 155.682 40.3018C159.659 40.0782 163.527 39.4852 167.524 39.298C169.043 39.2304 170.513 38.9339 172.032 38.8351C173.9 38.7103 175.629 38.2318 177.718 38.9183C178.797 39.272 180.876 38.9339 182.435 38.7519C187.492 38.1538 192.669 37.9769 197.745 37.488C203.242 36.9575 208.738 36.4114 214.265 35.9433C218.542 35.5845 222.859 35.3712 227.147 35.0332C231.994 34.6535 236.771 34.0866 241.638 33.7641C248.413 33.322 255.149 32.7291 261.905 32.2038C262.504 32.157 263.204 32.2558 263.704 31.7409C261.115 31.7097 258.787 32.0582 256.428 32.235C251.661 32.5887 246.914 33.01 242.127 33.3012C237.36 33.5873 232.563 33.7849 227.866 34.4246C224.468 34.8875 220.891 34.9863 217.443 35.3608C212.636 35.8809 207.759 36.1202 202.952 36.6819C198.715 37.1812 194.307 37.2748 189.98 37.5401C188.511 37.6285 187.052 37.7221 185.573 37.7897C185.073 37.8157 184.414 37.8417 184.344 37.4724C184.124 36.3698 182.665 36.5831 181.326 36.6767C180.626 36.7235 179.937 36.8535 179.257 36.7183L179.277 36.7131ZM264.773 31.6733C264.863 31.8345 265.123 31.8865 265.373 31.8657C268.211 31.6213 271.099 31.5069 273.897 31.2208C277.305 30.8723 280.733 30.4355 284.131 30.243C292.096 29.7905 299.971 29.0728 307.906 28.5475C309.425 28.4487 311.104 28.4279 312.633 27.6321C296.373 28.8439 280.463 29.931 264.763 31.6785L264.773 31.6733Z" fill="#cd09d1"/>
<path d="M521 28.1648C516.033 28.688 511.367 28.9064 506.631 28.7185C504.027 28.6169 501.514 28.8505 499.08 29.3128C498.72 29.3788 498.349 29.4601 497.979 29.4703C493.984 29.582 489.988 29.6836 486.003 29.7903C481.096 29.9173 476.119 29.8411 471.303 30.2424C467.157 30.5878 463.012 30.8214 458.846 31.045C454.961 31.2532 451.036 30.918 447.23 31.1669C441.803 31.5224 436.396 31.9237 430.939 32.1218C425.271 32.3301 419.603 32.5841 413.956 32.894C404.453 33.4121 394.96 34.0013 385.457 34.5347C380.13 34.8344 374.783 35.068 369.466 35.3881C364.609 35.6776 359.763 36.0484 354.916 36.3786C354.275 36.4243 353.574 36.5005 352.983 36.4192C346.745 35.5405 340.627 36.3126 334.488 36.7494C331.224 36.9831 327.96 37.2269 324.675 37.4199C323.444 37.491 322.242 37.5926 320.69 37.8669C322.562 38.1209 324.205 37.6384 325.717 38.1412C310.746 39.8379 295.616 40.9808 280.446 41.9967C280.375 41.8697 280.315 41.7427 280.245 41.6208C281.126 41.377 282.008 41.1332 282.889 40.8893C282.869 40.8487 282.859 40.8081 282.839 40.7674C280.115 40.93 277.401 41.1078 274.678 41.2551C268.6 41.5751 262.591 42.1491 256.443 42.2202C252.608 42.2659 248.773 42.6825 244.978 43.033C243.946 43.1295 242.925 43.16 241.914 43.1803C238.629 43.2463 235.555 43.9321 232.261 43.9879C231.379 44.0032 230.618 44.0692 230.068 43.607C229.517 43.1447 228.706 43.4139 227.995 43.4749C224.51 43.7848 221.035 44.1759 217 43.6425C218.492 43.4139 219.934 43.3987 219.573 42.4945C219.473 42.2456 220.004 42.1288 220.485 42.0729C223.298 41.7631 226.002 41.2602 228.906 41.0671C235.695 40.615 242.464 40.041 249.233 39.4874C259.417 38.6543 269.591 37.7806 279.775 36.9424C285.322 36.4853 290.89 36.1043 296.437 35.6624C303.376 35.1138 310.356 34.682 317.245 33.9658C323.233 33.341 329.332 32.9701 335.41 32.5942C342.139 32.1777 348.898 31.9136 355.627 31.5326C359.582 31.3091 363.407 30.6691 367.393 30.4963C371.939 30.2932 376.475 30.0646 381.021 29.8258C389.222 29.4042 397.483 29.3636 405.654 28.6981C410.03 28.3426 414.476 28.2308 418.892 28.0124C423.609 27.7787 428.325 27.5705 433.031 27.3114C437.147 27.0879 441.533 26.651 445.248 27.5095C450.795 28.7896 456.203 27.8498 461.64 27.8549C467.648 27.8651 473.646 27.5095 479.664 27.3876C487.134 27.2403 494.634 26.9761 502.094 27.1336C507.141 27.2403 512.168 27.1946 517.205 27.2352C518.597 27.2454 520.019 27.286 521 28.1597V28.1648Z" fill="#cd09d1"/>
<path d="M120.01 52.9588C121.386 52.3845 122.974 51.9559 124.649 51.7588C129.086 51.2402 133.725 51.3003 138.249 51.0046C138.548 50.9831 138.875 51.026 139 51.3731C132.801 52.0374 126.843 53.2373 120 52.9588H120.01Z" fill="#cd09d1"/>
<path d="M192.01 45.9778C197.912 45.1052 203.813 44.1874 209.853 44C209.902 44.2456 209.951 44.4913 210 44.7434C203.931 44.8274 198.128 46.1588 192 45.9842L192.01 45.9778Z" fill="#cd09d1"/>
<path d="M117 44.6563C122.89 43.9403 128.709 43.0764 134.86 43C134.91 43.1098 134.95 43.2243 135 43.3341C129.03 43.8878 123.07 44.4463 117.1 45C117.07 44.8854 117.03 44.7709 117 44.6563Z" fill="#cd09d1"/>
<path d="M225 52.488C225.749 51.6687 226.941 51.9939 227.847 51.775C229.728 51.3185 231.551 50.8119 233.324 50.2053C233.886 50.0114 234.605 49.8051 234.94 50.3491C235.206 50.7869 234.536 50.9995 234.033 51.1434C231.886 51.75 229.689 52.2878 227.561 52.9257C226.31 53.3011 226.162 52.1127 225 52.4817V52.488Z" fill="#cd09d1"/>
<path d="M657.01 52.3197C657.63 51.7797 658.11 51.4397 658.49 51.0197C659.29 50.1197 660.24 49.8397 661.14 50.6697C661.98 51.4397 662.02 54.4197 661.33 54.8997C660.76 55.2897 660.26 55.0397 659.81 54.5897C659 53.7797 658.2 52.9597 657.01 52.3197Z" fill="#cd09d1"/>
<path d="M73 48.0774C67.0662 48.7747 61.4773 49.2678 56 50C57.3795 49.1682 70.6772 47.6391 73 48.0774Z" fill="#cd09d1"/>
<path d="M149 41.0204C145.478 41.7141 141.744 41.8734 138 42C141.493 41.2313 145.16 40.9126 149 41.0204Z" fill="#cd09d1"/>
<path d="M267 48C265.979 48.6075 261.68 49.1215 259 48.9747C261.588 48.5107 263.99 48.1469 267 48Z" fill="#cd09d1"/>
<path d="M204 54.7275C206.303 54.3154 208.585 53.7016 211 54.1664C208.841 55.5869 206.374 54.7714 204 54.7275Z" fill="#cd09d1"/>
</svg>
